<svg width="100" height="100" viewBox="0 0 100 100" fill="none" xmlns="http://www.w3.org/2000/svg">
<g clip-path="url(#clip0_21_12)">
<path d="M37.672 77V76.24L38.66 76.012C39.6227 75.7587 40.3827 75.328 40.94 74.72C41.4973 74.0613 41.776 73.2253 41.776 72.212C41.776 70.3373 41.776 68.488 41.776 66.664C41.8267 64.7893 41.852 62.9147 41.852 61.04V41.964H37.596V41.128L39.268 40.824C40.2813 40.7227 41.016 40.368 41.472 39.76C41.928 39.152 42.2573 38.316 42.46 37.252C42.9667 35.276 43.7013 33.5533 44.664 32.084C45.6773 30.564 46.8173 29.1707 48.084 27.904C50.0093 26.08 52.036 24.8133 54.164 24.104C56.3427 23.344 58.4707 22.964 60.548 22.964C62.5747 22.964 64.424 23.3947 66.096 24.256C67.768 25.0667 68.604 26.4347 68.604 28.36C68.604 29.728 68.1987 30.8173 67.388 31.628C66.5773 32.388 65.4373 32.768 63.968 32.768C62.752 32.768 61.6373 32.4387 60.624 31.78C59.6107 31.1213 58.6227 29.956 57.66 28.284L56.596 26.992C56.0387 26.2827 55.4813 25.9533 54.924 26.004C54.3667 26.004 53.9613 26.4093 53.708 27.22C53.3533 28.9933 53.0747 31.0707 52.872 33.452C52.72 35.8333 52.644 38.164 52.644 40.444H61.156V41.964H52.644V72.06C52.644 73.9853 53.6573 75.2267 55.684 75.784L57.584 76.24V77H37.672Z" fill="black"/>
</g>
<defs>
<clipPath id="clip0_21_12">
<rect width="100" height="100" fill="white"/>
</clipPath>
</defs>
</svg>
