<svg width="224" height="89" viewBox="0 0 224 89" fill="none" xmlns="http://www.w3.org/2000/svg">
<path d="M14.408 66V65.36L15.24 65.168C16.0507 64.9547 16.6907 64.592 17.16 64.08C17.6293 63.5253 17.864 62.8213 17.864 61.968C17.864 60.3893 17.864 58.832 17.864 57.296C17.9067 55.7173 17.928 54.1387 17.928 52.56V36.496H14.344V35.792L15.752 35.536C16.6053 35.4507 17.224 35.152 17.608 34.64C17.992 34.128 18.2693 33.424 18.44 32.528C18.8667 30.864 19.4853 29.4133 20.296 28.176C21.1493 26.896 22.1093 25.7227 23.176 24.656C24.7973 23.12 26.504 22.0533 28.296 21.456C30.1307 20.816 31.9227 20.496 33.672 20.496C35.3787 20.496 36.936 20.8587 38.344 21.584C39.752 22.2667 40.456 23.4187 40.456 25.04C40.456 26.192 40.1147 27.1093 39.432 27.792C38.7493 28.432 37.7893 28.752 36.552 28.752C35.528 28.752 34.5893 28.4747 33.736 27.92C32.8827 27.3653 32.0507 26.384 31.24 24.976L30.344 23.888C29.8747 23.2907 29.4053 23.0133 28.936 23.056C28.4667 23.056 28.1253 23.3973 27.912 24.08C27.6133 25.5733 27.3787 27.3227 27.208 29.328C27.08 31.3333 27.016 33.296 27.016 35.216H34.184V36.496H27.016V61.84C27.016 63.4613 27.8693 64.5067 29.576 64.976L31.176 65.36V66H14.408ZM51.5315 34.256C54.3048 34.256 56.6728 34.832 58.6355 35.984C60.5982 37.0933 62.0915 38.6293 63.1155 40.592C64.1822 42.512 64.7155 44.7093 64.7155 47.184C64.7155 47.6533 64.6942 48.144 64.6515 48.656C64.6088 49.1253 64.5235 49.552 64.3955 49.936H45.3235C45.3662 54.544 46.1768 57.872 47.7555 59.92C49.3768 61.9253 51.7662 62.928 54.9235 62.928C57.0568 62.928 58.7848 62.5867 60.1075 61.904C61.4302 61.2213 62.6675 60.2187 63.8195 58.896L64.4595 59.472C63.1368 61.8187 61.3662 63.6533 59.1475 64.976C56.9715 66.2987 54.3475 66.96 51.2755 66.96C48.2462 66.96 45.5582 66.32 43.2115 65.04C40.8648 63.7173 39.0302 61.84 37.7075 59.408C36.3848 56.976 35.7235 54.0747 35.7235 50.704C35.7235 47.2053 36.4915 44.24 38.0275 41.808C39.5635 39.3333 41.5262 37.456 43.9155 36.176C46.3475 34.896 48.8862 34.256 51.5315 34.256ZM51.3395 35.536C50.1022 35.536 49.0355 35.92 48.1395 36.688C47.2862 37.4133 46.6035 38.736 46.0915 40.656C45.6222 42.5333 45.3662 45.2 45.3235 48.656H56.2675C56.6942 44.0053 56.5235 40.656 55.7555 38.608C54.9875 36.56 53.5155 35.536 51.3395 35.536ZM83.969 34.256C86.7423 34.256 89.1103 34.832 91.073 35.984C93.0357 37.0933 94.529 38.6293 95.553 40.592C96.6197 42.512 97.153 44.7093 97.153 47.184C97.153 47.6533 97.1317 48.144 97.089 48.656C97.0463 49.1253 96.961 49.552 96.833 49.936H77.761C77.8037 54.544 78.6143 57.872 80.193 59.92C81.8143 61.9253 84.2037 62.928 87.361 62.928C89.4943 62.928 91.2223 62.5867 92.545 61.904C93.8677 61.2213 95.105 60.2187 96.257 58.896L96.897 59.472C95.5743 61.8187 93.8037 63.6533 91.585 64.976C89.409 66.2987 86.785 66.96 83.713 66.96C80.6837 66.96 77.9957 66.32 75.649 65.04C73.3023 63.7173 71.4677 61.84 70.145 59.408C68.8223 56.976 68.161 54.0747 68.161 50.704C68.161 47.2053 68.929 44.24 70.465 41.808C72.001 39.3333 73.9637 37.456 76.353 36.176C78.785 34.896 81.3237 34.256 83.969 34.256ZM83.777 35.536C82.5397 35.536 81.473 35.92 80.577 36.688C79.7237 37.4133 79.041 38.736 78.529 40.656C78.0597 42.5333 77.8037 45.2 77.761 48.656H88.705C89.1317 44.0053 88.961 40.656 88.193 38.608C87.425 36.56 85.953 35.536 83.777 35.536ZM113.911 66.96C111.393 66.96 109.132 66.4053 107.127 65.296C105.121 64.144 103.521 62.3947 102.327 60.048C101.175 57.6587 100.599 54.608 100.599 50.896C100.599 47.1413 101.26 44.048 102.583 41.616C103.905 39.1413 105.655 37.3067 107.831 36.112C110.007 34.8747 112.375 34.256 114.935 34.256C116.428 34.256 117.857 34.4053 119.223 34.704C120.588 35.0027 121.804 35.4507 122.871 36.048V27.728C122.871 26.832 122.721 26.1707 122.423 25.744C122.167 25.3173 121.591 25.0187 120.695 24.848L119.479 24.592V23.952L131.127 21.136L131.831 21.712L131.575 30.672V61.968C131.575 62.8213 131.724 63.5253 132.023 64.08C132.321 64.592 132.876 64.9547 133.687 65.168L134.263 65.36V66L123.319 66.704L122.743 64.4C121.591 65.168 120.268 65.7867 118.775 66.256C117.324 66.7253 115.703 66.96 113.911 66.96ZM117.623 64.592C119.415 64.592 121.057 64.0587 122.551 62.992V37.584C120.972 36.56 119.351 36.048 117.687 36.048C115.639 36.048 113.889 37.2427 112.439 39.632C110.988 41.9787 110.263 45.6907 110.263 50.768C110.263 55.8453 110.945 59.4293 112.311 61.52C113.676 63.568 115.447 64.592 117.623 64.592ZM137.221 66V65.36L138.053 65.168C138.863 64.9547 139.503 64.592 139.973 64.08C140.442 63.5253 140.677 62.8213 140.677 61.968C140.677 60.3893 140.677 58.832 140.677 57.296C140.719 55.7173 140.741 54.1387 140.741 52.56V36.496H137.157V35.792L138.565 35.536C139.418 35.4507 140.037 35.152 140.421 34.64C140.805 34.128 141.082 33.424 141.253 32.528C141.679 30.864 142.298 29.4133 143.109 28.176C143.962 26.896 144.922 25.7227 145.989 24.656C147.61 23.12 149.317 22.0533 151.109 21.456C152.943 20.816 154.735 20.496 156.485 20.496C158.191 20.496 159.749 20.8587 161.157 21.584C162.565 22.2667 163.269 23.4187 163.269 25.04C163.269 26.192 162.927 27.1093 162.245 27.792C161.562 28.432 160.602 28.752 159.365 28.752C158.341 28.752 157.402 28.4747 156.549 27.92C155.695 27.3653 154.863 26.384 154.053 24.976L153.157 23.888C152.687 23.2907 152.218 23.0133 151.749 23.056C151.279 23.056 150.938 23.3973 150.725 24.08C150.426 25.5733 150.191 27.3227 150.021 29.328C149.893 31.3333 149.829 33.296 149.829 35.216H156.997V36.496H149.829V61.84C149.829 63.4613 150.682 64.5067 152.389 64.976L153.989 65.36V66H137.221ZM170.177 66.96C168.513 66.96 166.977 66.64 165.569 66C164.203 65.36 163.115 64.336 162.305 62.928C161.537 61.4773 161.174 59.5787 161.217 57.232L161.409 40.784C161.409 39.8027 161.238 39.0987 160.897 38.672C160.555 38.2453 160.022 37.9467 159.297 37.776L158.529 37.52V36.88L169.985 34.64L170.625 35.28L170.305 44.368V59.792C170.305 61.1573 170.689 62.16 171.457 62.8C172.267 63.44 173.27 63.76 174.465 63.76C175.659 63.76 176.726 63.5893 177.665 63.248C178.603 62.9067 179.542 62.3947 180.481 61.712L180.737 40.848C180.737 39.8667 180.587 39.184 180.289 38.8C179.99 38.3733 179.435 38.0747 178.625 37.904L177.985 37.712V37.072L189.185 34.64L189.825 35.28L189.632 44.368V61.712C189.632 62.6507 189.761 63.376 190.017 63.888C190.273 64.4 190.827 64.8267 191.681 65.168L192.321 65.36V66L181.121 66.64L180.545 62.864C179.137 64.016 177.601 64.9973 175.937 65.808C174.315 66.576 172.395 66.96 170.177 66.96ZM195.097 66V65.36L195.865 65.104C197.401 64.592 198.169 63.5253 198.169 61.904V27.664C198.169 26.8107 197.998 26.1707 197.657 25.744C197.316 25.2747 196.718 24.9333 195.865 24.72L195.033 24.528V23.888L206.745 21.136L207.513 21.712L207.257 30.672V52.56C207.257 54.1387 207.257 55.7173 207.257 57.296C207.3 58.832 207.321 60.368 207.321 61.904C207.321 62.7573 207.492 63.4613 207.833 64.016C208.174 64.528 208.75 64.912 209.561 65.168L210.393 65.36V66H195.097Z" fill="black"/>
</svg>
